<?xml version="1.0" standalone="no"?>
<!DOCTYPE svg PUBLIC "-//W3C//DTD SVG 20010904//EN"
 "http://www.w3.org/TR/2001/REC-SVG-20010904/DTD/svg10.dtd">
<svg version="1.0" xmlns="http://www.w3.org/2000/svg"
 width="700.000000pt" height="700.000000pt" viewBox="0 0 700.000000 700.000000"
 preserveAspectRatio="xMidYMid meet">
<metadata>
Created by potrace 1.11, written by Peter Selinger 2001-2013
</metadata>
<g transform="translate(0.000000,700.000000) scale(0.100000,-0.100000)"
fill="#000000" stroke="none">
<path d="M3235 6994 c-683 -41 -1128 -119 -1675 -291 -160 -51 -427 -151 -505
-190 -220 -110 -434 -320 -553 -543 -108 -201 -271 -704 -353 -1085 -102 -473
-143 -869 -143 -1385 0 -707 89 -1298 291 -1940 51 -160 151 -427 190 -505
110 -220 320 -434 543 -553 201 -108 704 -271 1085 -353 473 -102 869 -143
1385 -143 516 0 912 41 1385 143 381 82 884 245 1085 353 223 119 433 333 543
553 39 78 139 345 190 505 202 642 291 1233 291 1940 0 516 -41 912 -143 1385
-82 381 -245 884 -353 1085 -119 223 -333 433 -553 543 -78 39 -345 139 -505
190 -469 148 -922 235 -1440 277 -131 11 -661 20 -765 14z m565 -1614 c384
-40 731 -185 1019 -425 305 -254 497 -573 558 -925 17 -97 18 -185 18 -1190
l0 -1085 -207 -3 -208 -2 0 455 0 455 -1400 0 -1400 0 -2 -453 -3 -452 -205 0
-205 0 0 1100 0 1100 23 115 c60 298 206 555 443 785 219 212 433 344 705 434
263 88 576 121 864 91z"/>
<path d="M3360 4950 c-534 -73 -985 -411 -1129 -845 -45 -136 -51 -210 -51
-636 l0 -389 1401 0 1401 0 -5 428 c-4 343 -8 440 -20 492 -50 203 -132 353
-281 508 -205 214 -468 359 -768 423 -106 23 -435 34 -548 19z"/>
</g>
</svg>
