<?xml version="1.0" encoding="UTF-8" standalone="no"?>
<svg
   xmlns:dc="http://purl.org/dc/elements/1.1/"
   xmlns:cc="http://creativecommons.org/ns#"
   xmlns:rdf="http://www.w3.org/1999/02/22-rdf-syntax-ns#"
   xmlns:svg="http://www.w3.org/2000/svg"
   xmlns="http://www.w3.org/2000/svg"
   xmlns:xlink="http://www.w3.org/1999/xlink"
   id="svg8"
   version="1.1"
   viewBox="0 0 183.30113 149.15729"
   height="149.15729mm"
   width="183.30113mm">
  <defs
     id="defs2">
    <linearGradient
       id="linearGradient3799">
      <stop
         id="stop3795"
         offset="0"
         style="stop-color:#efefef;stop-opacity:1;" />
      <stop
         id="stop3797"
         offset="1"
         style="stop-color:#2d2d2d;stop-opacity:0.10526316" />
    </linearGradient>
    <linearGradient
       gradientUnits="userSpaceOnUse"
       y2="59.975658"
       x2="433.06787"
       y1="76.082947"
       x1="375.03513"
       id="linearGradient3801"
       xlink:href="#linearGradient3799" />
  </defs>
  <metadata
     id="metadata5">
    <rdf:RDF>
      <cc:Work
         rdf:about="">
        <dc:format>image/svg+xml</dc:format>
        <dc:type
           rdf:resource="http://purl.org/dc/dcmitype/StillImage" />
        <dc:title></dc:title>
      </cc:Work>
    </rdf:RDF>
  </metadata>
  <g
     transform="translate(-292.22966,66.575199)"
     id="layer1">
    <path
       id="path3871"
       d="m 474.22531,-19.849493 -65.06063,8.958627 -0.49092,6.054926 -11.76001,14.165027 -11.22516,5.078243 -3.45973,-0.865063 -14.97066,39.557793 77.12449,12.301055 1.6831,-0.962212 z"
       style="opacity:1;fill:#ececec;fill-opacity:1;fill-rule:nonzero;stroke:none;stroke-width:1;stroke-linecap:round;stroke-linejoin:round;stroke-miterlimit:4;stroke-dasharray:none;stroke-dashoffset:0;stroke-opacity:1" />
    <path
       id="rect3755"
       d="m 474.22519,-19.849461 1.3056,1.492911 -27.60205,83.390411 -3.71358,1.344473 -0.59303,-1.043008 2.44383,-0.896099 z"
       style="opacity:1;fill:#808080;fill-opacity:1;fill-rule:nonzero;stroke:none;stroke-width:1;stroke-linecap:round;stroke-linejoin:round;stroke-miterlimit:4;stroke-dasharray:none;stroke-dashoffset:0;stroke-opacity:1" />
    <path
       id="rect3758"
       d="m 367.25793,53.099941 76.9097,11.614802 -88.59443,16.565289 -63.34354,-18.91967 z"
       style="opacity:0.48900003;fill:#cccccc;fill-opacity:1;fill-rule:nonzero;stroke:none;stroke-width:1;stroke-linecap:round;stroke-linejoin:round;stroke-miterlimit:4;stroke-dasharray:none;stroke-dashoffset:0;stroke-opacity:1" />
    <path
       id="path3761"
       d="m 292.22966,62.36036 0.36031,1.617361 62.9507,18.604365 88.73935,-14.141034 -0.11239,-3.726309 -88.59443,16.565288 z"
       style="fill:#808080;stroke:none;stroke-width:0.26458332px;stroke-linecap:butt;stroke-linejoin:miter;stroke-opacity:1" />
    <path
       id="path3763"
       d="m 311.88442,66.234617 21.16666,6.047618 28.44271,-4.063243 -23.43452,-5.575149 z"
       style="fill:#b9b9b9;fill-opacity:1;stroke:none;stroke-width:0.26458332px;stroke-linecap:butt;stroke-linejoin:miter;stroke-opacity:1" />
    <path
       id="path3777"
       d="m 387.66864,72.329482 41.75585,-7.623863 -65.83182,-9.56491 -36.45891,4.326427 -0.0869,0.344109 z"
       style="opacity:1;fill:url(#linearGradient3801);fill-opacity:1;stroke:none;stroke-width:0.26458332px;stroke-linecap:butt;stroke-linejoin:miter;stroke-opacity:1" />
    <g
       style="fill:#999999"
       id="g3785">
      <g
         style="fill:#999999"
         id="g3793">
        <path
           id="path3765"
           d="m 327.09796,59.620031 60.57068,12.709451 2.03162,-0.141743 -62.14809,-12.820417 z"
           style="fill:#999999;stroke:none;stroke-width:0.26458332px;stroke-linecap:butt;stroke-linejoin:miter;stroke-opacity:1" />
        <path
           style="fill:#999999;stroke:none;stroke-width:0.26458332px;stroke-linecap:butt;stroke-linejoin:miter;stroke-opacity:1"
           d="m 335.22173,58.4838 59.46274,12.676378 2.03162,-0.141743 -61.04015,-12.787344 z"
           id="path3767" />
        <path
           id="path3769"
           d="m 341.91468,57.6325 63.19998,11.750336 2.03162,-0.141743 -64.77739,-11.861302 z"
           style="fill:#999999;stroke:none;stroke-width:0.26458332px;stroke-linecap:butt;stroke-linejoin:miter;stroke-opacity:1" />
        <path
           style="fill:#999999;stroke:none;stroke-width:0.26458332px;stroke-linecap:butt;stroke-linejoin:miter;stroke-opacity:1"
           d="m 348.24815,56.739531 64.27484,11.386534 2.03162,-0.141743 -65.85226,-11.4975 z"
           id="path3771" />
        <path
           id="path3773"
           d="m 354.81904,55.999319 65.5753,11.002267 2.03162,-0.141743 -67.15271,-11.113233 z"
           style="fill:#999999;stroke:none;stroke-width:0.26458332px;stroke-linecap:butt;stroke-linejoin:miter;stroke-opacity:1" />
        <path
           style="fill:#999999;stroke:none;stroke-width:0.26458332px;stroke-linecap:butt;stroke-linejoin:miter;stroke-opacity:1"
           d="m 360.7295,55.228237 67.02523,10.370843 2.03162,-0.141743 -68.60264,-10.481809 z"
           id="path3775" />
      </g>
    </g>
    <path
       id="path3733"
       d="m 386.49039,9.9975205 6.01357,15.2343595 -1.33635,12.56167 16.30344,8.018081 20.71339,-43.0303905 -6.81537,-3.6081395 -3.34087,-1.069081 -3.60814,-14.96709 z"
       style="fill:#acacac;stroke:none;stroke-width:0.26458332px;stroke-linecap:butt;stroke-linejoin:miter;stroke-opacity:1;fill-opacity:1" />
    <path
       id="path3727"
       d="m 390.7667,-46.79726 1.87089,10.42351 4.54358,-7.75081 0.80181,13.0962 6.41447,5.87993 1.33635,9.35444 4.54358,-8.8199 4.27631,2.93997 -0.80181,-8.8199 5.34539,11.225321 -5.61266,6.949009 4.54359,10.42351 0.26726,-8.819889 2.6727,0.534539 -0.26727,-7.75082 5.34539,-20.57975 -5.07812,-13.63075 0.80181,-2.13815 3.74177,1.336341 -6.1472,-4.27631 -3.20723,-0.26727 -6.1472,-8.81989 0.80181,4.27631 -16.30344,-4.54358 -24.05426,7.75081 -12.56167,9.62171 3.74178,2.93996 -2.93997,4.00905 2.93997,5.87992 1.06907,-5.34539 2.13816,5.87993 2.93996,-7.21627 18.70887,-3.74178 -4.81085,3.74178 4.54358,-1.87089 -2.13816,7.21628 z"
       style="fill:#000000;stroke:none;stroke-width:0.26458332px;stroke-linecap:butt;stroke-linejoin:miter;stroke-opacity:1" />
    <path
       id="path3729"
       d="m 364.84156,-35.83921 -2.13816,8.55263 4.00905,8.81989 -2.13816,9.08717 9.35443,14.9670905 2.13816,6.4144705 9.6217,2.40542 11.22532,-5.0781205 11.75986,-14.1652805 1.60362,-19.77795 -7.48355,-28.59784 -35.01231,10.15625 z"
       style="opacity:0.44900004;fill:#6793ff;fill-opacity:1;stroke:none;stroke-width:0.26458332px;stroke-linecap:butt;stroke-linejoin:miter;stroke-opacity:1" />
    <path
       id="path3731"
       d="m 407.6715,-24.34662 1.26953,13.22984 2.33861,1.53681 3.20723,-1.67044 5.67948,-9.82215 0.0668,-8.75308 -3.40769,-1.46999 -4.81085,4.07587 z"
       style="fill:#cccccc;stroke:none;stroke-width:0.26458332px;stroke-linecap:butt;stroke-linejoin:miter;stroke-opacity:1" />
    <path
       id="path3735"
       d="m 414.85437,-29.79224 -0.43431,12.92917 -4.14268,-7.75082 -7.48355,-28.59784 z"
       style="fill:#000000;stroke:none;stroke-width:0.26458332px;stroke-linecap:butt;stroke-linejoin:miter;stroke-opacity:1" />
    <circle
       r="1.1693041"
       cy="67.321259"
       cx="440.30185"
       id="path3827"
       style="opacity:1;fill:#000000;fill-opacity:1;fill-rule:nonzero;stroke:none;stroke-width:1;stroke-linecap:round;stroke-linejoin:round;stroke-miterlimit:4;stroke-dasharray:none;stroke-dashoffset:0;stroke-opacity:1" />
  </g>
</svg>
