<?xml version="1.0" encoding="UTF-8" standalone="no"?>
<svg
   xmlns:dc="http://purl.org/dc/elements/1.1/"
   xmlns:cc="http://creativecommons.org/ns#"
   xmlns:rdf="http://www.w3.org/1999/02/22-rdf-syntax-ns#"
   xmlns:svg="http://www.w3.org/2000/svg"
   xmlns="http://www.w3.org/2000/svg"
   xmlns:xlink="http://www.w3.org/1999/xlink"
   xmlns:sodipodi="http://sodipodi.sourceforge.net/DTD/sodipodi-0.dtd"
   xmlns:inkscape="http://www.inkscape.org/namespaces/inkscape"
   width="70.291893mm"
   height="112.38683mm"
   viewBox="0 0 70.291892 112.38684"
   version="1.1"
   id="svg8"
   sodipodi:docname="face_detect.svg"
   inkscape:version="0.92.2 (5c3e80d, 2017-08-06)">
  <sodipodi:namedview
     pagecolor="#ffffff"
     bordercolor="#666666"
     borderopacity="1"
     objecttolerance="10"
     gridtolerance="10"
     guidetolerance="10"
     inkscape:pageopacity="0"
     inkscape:pageshadow="2"
     inkscape:window-width="1920"
     inkscape:window-height="1057"
     id="namedview3729"
     showgrid="false"
     inkscape:zoom="1.3766944"
     inkscape:cx="251.63292"
     inkscape:cy="150.65029"
     inkscape:window-x="-8"
     inkscape:window-y="-8"
     inkscape:window-maximized="1"
     inkscape:current-layer="svg8" />
  <defs
     id="defs2">
    <linearGradient
       id="linearGradient3799">
      <stop
         style="stop-color:#efefef;stop-opacity:1;"
         offset="0"
         id="stop3795" />
      <stop
         style="stop-color:#2d2d2d;stop-opacity:0.10526316"
         offset="1"
         id="stop3797" />
    </linearGradient>
    <linearGradient
       gradientTransform="translate(-352.93556,85.450144)"
       xlink:href="#linearGradient3799"
       id="linearGradient3801"
       x1="375.03513"
       y1="76.082947"
       x2="433.06787"
       y2="59.975658"
       gradientUnits="userSpaceOnUse" />
  </defs>
  <metadata
     id="metadata5">
    <rdf:RDF>
      <cc:Work
         rdf:about="">
        <dc:format>image/svg+xml</dc:format>
        <dc:type
           rdf:resource="http://purl.org/dc/dcmitype/StillImage" />
        <dc:title />
      </cc:Work>
    </rdf:RDF>
  </metadata>
  <path
     inkscape:connector-curvature="0"
     id="path3733"
     d="M 28.59784,76.57272 34.61141,91.807079 33.27506,104.36875 49.5785,112.38683 70.29189,69.356439 63.47652,65.7483 60.13565,64.679219 56.52751,49.712129 Z"
     style="fill:#acacac;fill-opacity:1;stroke:none;stroke-width:0.26458332px;stroke-linecap:butt;stroke-linejoin:miter;stroke-opacity:1" />
  <path
     inkscape:connector-curvature="0"
     id="path3727"
     d="m 32.87415,19.777939 1.87089,10.42351 4.54358,-7.75081 0.80181,13.0962 6.41447,5.87993 1.33635,9.35444 4.54358,-8.8199 4.27631,2.93997 -0.80181,-8.8199 5.34539,11.225321 -5.61266,6.949009 4.54359,10.42351 0.26726,-8.819889 2.6727,0.534539 -0.26727,-7.75082 5.34539,-20.57975 -5.07812,-13.63075 0.80181,-2.13815 3.74177,1.336341 L 61.47199,9.35443 58.26476,9.08716 52.11756,0.26727 52.91937,4.54358 36.61593,0 12.56167,7.75081 0,17.37252 l 3.74178,2.93996 -2.93997,4.00905 2.93997,5.87992 1.06907,-5.34539 2.13816,5.87993 2.93996,-7.21627 18.70887,-3.74178 -4.81085,3.74178 4.54358,-1.87089 -2.13816,7.21628 z"
     style="fill:#000000;stroke:none;stroke-width:0.26458332px;stroke-linecap:butt;stroke-linejoin:miter;stroke-opacity:1" />
  <path
     inkscape:connector-curvature="0"
     id="path3729"
     d="m 6.94901,30.735989 -2.13816,8.55263 4.00905,8.81989 -2.13816,9.08717 9.35443,14.96709 2.13816,6.414471 9.6217,2.40542 11.22532,-5.078121 11.75986,-14.16528 1.60362,-19.77795 -7.48355,-28.59784 -35.01231,10.15625 z"
     style="opacity:0.44900004;fill:#6793ff;fill-opacity:1;stroke:none;stroke-width:0.26458332px;stroke-linecap:butt;stroke-linejoin:miter;stroke-opacity:1" />
  <path
     inkscape:connector-curvature="0"
     id="path3731"
     d="m 49.77895,42.228579 1.26953,13.22984 2.33861,1.53681 3.20723,-1.67044 5.67948,-9.82215 0.0668,-8.75308 -3.40769,-1.46999 -4.81085,4.07587 z"
     style="fill:#cccccc;stroke:none;stroke-width:0.26458332px;stroke-linecap:butt;stroke-linejoin:miter;stroke-opacity:1" />
  <path
     inkscape:connector-curvature="0"
     id="path3735"
     d="m 56.96182,36.782959 -0.43431,12.92917 -4.14268,-7.75082 -7.48355,-28.59784 z"
     style="fill:#000000;stroke:none;stroke-width:0.26458332px;stroke-linecap:butt;stroke-linejoin:miter;stroke-opacity:1" />
</svg>
